# Blender 5.0.1
# www.blender.org
mtllib camera.mtl
o Cube
v -0.177399 0.069159 -0.566351
v -0.177399 -0.069159 -0.566351
v -0.039082 0.069159 -0.566351
v -0.039082 -0.069159 -0.566351
v -0.136585 0.125183 -0.688064
v -0.233424 0.028344 -0.688064
v -0.179499 0.071259 -0.570913
v -0.205060 0.096820 -0.688064
v -0.233424 -0.028344 -0.688064
v -0.136585 -0.125183 -0.688064
v -0.179499 -0.071259 -0.570913
v -0.205060 -0.096820 -0.688064
v 0.016943 0.028344 -0.688064
v -0.079896 0.125183 -0.688064
v -0.036982 0.071259 -0.570913
v -0.011421 0.096820 -0.688064
v -0.079896 -0.125183 -0.688064
v 0.016943 -0.028344 -0.688064
v -0.036982 -0.071259 -0.570913
v -0.011421 -0.096820 -0.688064
v -0.233424 0.028344 -0.772535
v -0.136585 0.125183 -0.772535
v -0.205060 0.096820 -0.772535
v -0.136585 -0.125183 -0.772535
v -0.233424 -0.028344 -0.772535
v -0.205060 -0.096820 -0.772535
v -0.079896 0.125183 -0.772535
v 0.016943 0.028344 -0.772535
v -0.011421 0.096820 -0.772535
v 0.016943 -0.028344 -0.772535
v -0.079896 -0.125183 -0.772535
v -0.011421 -0.096820 -0.772535
v -0.249690 0.233385 0.349870
v -0.341625 0.141450 0.349870
v -0.314698 0.206458 0.349870
v -0.341625 -0.141450 0.349870
v -0.314698 -0.206458 0.349870
v 0.125145 0.141450 0.349870
v 0.033209 0.233385 0.349870
v 0.098217 0.206458 0.349870
v 0.125145 -0.141450 0.349870
v 0.098217 -0.206458 0.349870
v -0.341625 0.141450 -0.566351
v -0.249690 0.233385 -0.566351
v -0.276617 0.168377 -0.566351
v -0.314698 0.206458 -0.566351
v -0.341625 -0.141450 -0.566351
v -0.276617 -0.168377 -0.566351
v -0.314698 -0.206458 -0.566351
v 0.033209 0.233385 -0.566351
v 0.125145 0.141450 -0.566351
v 0.060137 0.168377 -0.566351
v 0.098217 0.206458 -0.566351
v 0.125145 -0.141450 -0.566351
v 0.060137 -0.168377 -0.566351
v 0.098217 -0.206458 -0.566351
v -0.249690 -0.233385 -0.566351
v -0.249690 -0.233385 0.349870
v 0.033209 -0.233385 0.349870
v 0.033209 -0.233385 -0.566351
v -0.171479 -0.233385 0.139680
v -0.143790 -0.233385 0.196350
v -0.190904 -0.233385 0.234479
v -0.167770 -0.233385 0.168015
v -0.157635 -0.233385 0.188758
v -0.072690 -0.233385 0.196350
v -0.045001 -0.233385 0.139680
v -0.025577 -0.233385 0.234479
v -0.058846 -0.233385 0.188758
v -0.048711 -0.233385 0.168015
v -0.143790 -0.233385 -0.412831
v -0.171479 -0.233385 -0.356161
v -0.190904 -0.233385 -0.450960
v -0.157635 -0.233385 -0.405239
v -0.167770 -0.233385 -0.384496
v -0.045001 -0.233385 -0.356161
v -0.072690 -0.233385 -0.412831
v -0.025577 -0.233385 -0.450960
v -0.048711 -0.233385 -0.384496
v -0.058846 -0.233385 -0.405239
v -0.195555 -0.414500 -0.472122
v -0.167866 -0.414500 -0.528793
v -0.191846 -0.414500 -0.500457
v -0.181711 -0.414500 -0.521200
v -0.167866 -0.414500 0.312312
v -0.195555 -0.414500 0.255641
v -0.181711 -0.414500 0.304720
v -0.191846 -0.414500 0.283977
v -0.020925 -0.414500 0.255641
v -0.048615 -0.414500 0.312312
v -0.024635 -0.414500 0.283977
v -0.034770 -0.414500 0.304720
v -0.048615 -0.414500 -0.528793
v -0.020925 -0.414500 -0.472122
v -0.034770 -0.414500 -0.521200
v -0.024635 -0.414500 -0.500457
vn -0.6548 0.6548 -0.3774
vn -0.6548 -0.6548 -0.3774
vn 0.6548 0.6548 -0.3774
vn 0.6548 -0.6548 -0.3774
vn -0.1642 0.9717 0.1698
vn -0.9717 0.1642 0.1698
vn -0.6295 0.6295 0.4554
vn -0.7009 0.7009 0.1323
vn -0.9717 -0.1642 0.1698
vn -0.1642 -0.9717 0.1698
vn -0.6295 -0.6295 0.4554
vn -0.7009 -0.7009 0.1323
vn 0.9717 0.1642 0.1698
vn 0.1642 0.9717 0.1698
vn 0.6295 0.6295 0.4554
vn 0.7009 0.7009 0.1323
vn 0.1642 -0.9717 0.1698
vn 0.9717 -0.1642 0.1698
vn 0.6295 -0.6295 0.4554
vn 0.7009 -0.7009 0.1323
vn -0.8929 0.1776 -0.4138
vn -0.1776 0.8929 -0.4138
vn -0.6534 0.6534 -0.3822
vn -0.1776 -0.8929 -0.4138
vn -0.8929 -0.1776 -0.4138
vn -0.6534 -0.6534 -0.3822
vn 0.1776 0.8929 -0.4138
vn 0.8929 0.1776 -0.4138
vn 0.6534 0.6534 -0.3822
vn 0.8929 -0.1776 -0.4138
vn 0.1776 -0.8929 -0.4138
vn 0.6534 -0.6534 -0.3822
vn -0.1776 0.8929 0.4138
vn -0.8929 0.1776 0.4138
vn -0.6534 0.6534 0.3822
vn -0.8929 -0.1776 0.4138
vn -0.6534 -0.6534 0.3822
vn 0.8929 0.1776 0.4138
vn 0.1776 0.8929 0.4138
vn 0.6534 0.6534 0.3822
vn 0.8929 -0.1776 0.4138
vn 0.6534 -0.6534 0.3822
vn -0.0000 -0.0000 -1.0000
vn -0.1776 -0.8929 0.4138
vn 0.1776 -0.8929 0.4138
vn -0.7324 -0.6798 0.0381
vn -0.1362 -0.8333 0.5358
vn -0.0000 -1.0000 -0.0000
vn -0.6825 -0.7090 0.1775
vn -0.4744 -0.7865 0.3954
vn 0.1362 -0.8333 0.5358
vn 0.7324 -0.6798 0.0381
vn 0.4744 -0.7865 0.3954
vn 0.6825 -0.7090 0.1775
vn -0.1362 -0.8333 -0.5358
vn -0.7324 -0.6798 -0.0381
vn -0.4744 -0.7865 -0.3954
vn -0.6825 -0.7090 -0.1775
vn 0.7324 -0.6798 -0.0381
vn 0.1362 -0.8333 -0.5358
vn 0.6825 -0.7090 -0.1775
vn 0.4744 -0.7865 -0.3954
vn -0.7855 -0.6159 -0.0600
vn -0.1693 -0.7829 -0.5987
vn -0.7721 -0.5902 -0.2357
vn -0.5581 -0.6744 -0.4835
vn -0.1693 -0.7829 0.5987
vn -0.7855 -0.6159 0.0600
vn -0.5581 -0.6744 0.4835
vn -0.7721 -0.5902 0.2357
vn 0.7855 -0.6159 0.0600
vn 0.1693 -0.7829 0.5987
vn 0.7721 -0.5902 0.2357
vn 0.5581 -0.6744 0.4835
vn 0.1693 -0.7829 -0.5987
vn 0.7855 -0.6159 -0.0600
vn 0.5581 -0.6744 -0.4835
vn 0.7721 -0.5902 -0.2357
vt 0.537041 0.616613
vt 0.537041 0.596352
vt 0.537041 0.587959
vt 0.491613 0.587959
vt 0.471352 0.587959
vt 0.462959 0.587959
vt 0.508387 0.662041
vt 0.528648 0.662041
vt 0.537041 0.662041
vt 0.462959 0.633387
vt 0.462959 0.653648
vt 0.462959 0.662041
vt 0.462959 0.662041
vt 0.534244 0.659244
vt 0.537041 0.633387
vt 0.508387 0.587959
vt 0.534244 0.590756
vt 0.462959 0.616613
vt 0.465756 0.590756
vt 0.491613 0.662041
vt 0.491613 0.662041
vt 0.465756 0.659243
vt 0.575760 0.500000
vt 0.610578 0.514422
vt 0.590182 0.534818
vt 0.600380 0.524620
vt 0.375000 0.549240
vt 0.389422 0.514422
vt 0.409818 0.534818
vt 0.399620 0.524620
vt 0.618845 0.706915
vt 0.610578 0.735578
vt 0.590182 0.715182
vt 0.575760 0.750000
vt 0.590182 0.715182
vt 0.418085 0.743845
vt 0.389422 0.735578
vt 0.409818 0.715182
vt 0.375000 0.700760
vt 0.409818 0.715182
vt 0.125000 0.549240
vt 0.125000 0.500000
vt 0.375000 0.500000
vt 0.382211 0.242789
vt 0.424240 0.250000
vt 0.424240 0.500000
vt 0.875000 0.700760
vt 0.875000 0.750000
vt 0.625000 0.750000
vt 0.625000 1.000000
vt 0.575760 1.000000
vt 0.125000 0.700760
vt 0.375000 0.750000
vt 0.125000 0.750000
vt 0.375000 1.000000
vt 0.424240 1.000000
vt 0.875000 0.549240
vt 0.625000 0.549240
vt 0.625000 0.500000
vt 0.875000 0.500000
vt 0.617789 0.242789
vt 0.575760 0.250000
vt 0.375000 0.049240
vt 0.389422 0.014422
vt 0.424240 0.000000
vt 0.575760 0.000000
vt 0.610578 0.014422
vt 0.625000 0.049240
vt 0.625000 0.200760
vt 0.375000 0.200760
vt 0.182352 0.591130
vt 0.174581 0.591130
vt 0.156486 0.580726
vt 0.168828 0.591130
vt 0.166793 0.591130
vt 0.166889 0.644040
vt 0.166889 0.651472
vt 0.156486 0.669274
vt 0.166889 0.656879
vt 0.166889 0.658667
vt 0.333111 0.605960
vt 0.333111 0.598528
vt 0.343514 0.580726
vt 0.333111 0.593121
vt 0.343514 0.580726
vt 0.333111 0.591333
vt 0.317648 0.658870
vt 0.325419 0.658870
vt 0.343514 0.669274
vt 0.331172 0.658870
vt 0.333207 0.658871
vt 0.321911 0.658870
vt 0.327539 0.658391
vt 0.332611 0.653515
vt 0.333111 0.651472
vt 0.333111 0.648130
vt 0.333111 0.644040
vt 0.321911 0.591130
vt 0.317648 0.591130
vt 0.325419 0.591130
vt 0.327539 0.591609
vt 0.332611 0.596485
vt 0.333111 0.601870
vt 0.166889 0.648130
vt 0.167390 0.653515
vt 0.172461 0.658391
vt 0.174581 0.658871
vt 0.178089 0.658871
vt 0.182352 0.658871
vt 0.178089 0.591130
vt 0.172461 0.591609
vt 0.167389 0.596485
vt 0.166889 0.598528
vt 0.166889 0.601870
vt 0.166889 0.605960
s 1
usemtl Material
f 5/1/5 8/2/8 7/3/7
f 8/2/8 6/3/6 7/3/7
f 9/4/9 12/5/12 11/6/11
f 12/5/12 10/6/10 11/6/11
f 13/7/13 16/8/16 15/9/15
f 16/8/16 14/9/14 15/9/15
f 17/10/17 20/11/20 19/12/19
f 20/11/20 18/13/18 19/13/19
f 13/7/13 28/7/28 29/14/29 16/9/16
f 16/9/16 29/14/29 27/15/27 14/15/14
f 21/16/21 6/16/6 8/3/8 23/17/23
f 23/17/23 8/3/8 5/1/5 22/1/22
f 24/18/24 10/18/10 12/6/12 26/19/26
f 26/19/26 12/6/12 9/4/9 25/4/25
f 30/20/30 18/21/18 20/13/20 32/22/32
f 32/22/32 20/13/20 17/10/17 31/10/31
f 9/4/9 6/16/6 21/16/21 25/4/25
f 2/6/2 1/3/1 7/3/7 6/16/6 9/4/9 11/6/11
f 5/1/5 14/15/14 27/15/27 22/1/22
f 1/3/1 3/9/3 15/9/15 14/15/14 5/1/5 7/3/7
f 4/13/4 2/6/2 11/6/11 10/18/10 17/10/17 19/12/19
f 17/10/17 10/18/10 24/18/24 31/10/31
f 13/7/13 18/21/18 30/20/30 28/7/28
f 3/9/3 4/13/4 19/12/19 18/21/18 13/7/13 15/9/15
f 24/18/24 26/19/26 25/4/25 21/16/21 23/17/23 22/1/22 27/15/27 29/14/29 28/7/28 30/20/30 32/22/32 31/10/31
f 43/23/21 46/24/23 45/25/43
f 46/24/23 44/26/22 45/25/43
f 57/27/24 49/28/26 48/29/43
f 49/28/26 47/30/25 48/29/43
f 50/31/27 53/32/29 52/33/43
f 53/32/29 51/34/28 52/35/43
f 54/36/30 56/37/32 55/38/43
f 56/37/32 60/39/31 55/40/43
f 57/27/24 58/41/44 37/42/37 49/43/26
f 49/43/26 37/44/37 36/45/36 47/46/25
f 50/31/27 39/47/39 40/48/40 53/49/29
f 53/49/29 40/50/40 38/51/38 51/34/28
f 59/52/45 60/39/31 56/53/32 42/54/42
f 42/55/42 56/53/32 54/36/30 41/56/41
f 33/57/33 44/58/22 46/59/23 35/60/35
f 35/61/35 46/59/23 43/23/21 34/62/34
f 36/45/36 34/62/34 43/23/21 47/46/25
f 59/63/45 42/64/42 41/65/41 38/66/38 40/67/40 39/68/39 33/69/33 35/61/35 34/62/34 36/45/36 37/44/37 58/70/44
f 44/58/22 33/57/33 39/47/39 50/31/27
f 54/36/30 51/34/28 38/51/38 41/56/41
f 1/3/1 2/6/2 48/29/43 47/46/25 43/23/21 45/25/43
f 3/9/3 1/3/1 45/25/43 44/58/22 50/31/27 52/33/43
f 2/6/2 4/13/4 55/38/43 60/39/31 57/27/24 48/29/43
f 4/13/4 3/9/3 52/33/43 51/34/28 54/36/30 55/38/43
f 61/71/46 64/72/49 63/73/48
f 64/72/49 65/74/50 63/73/48
f 65/74/50 62/75/47 63/73/48
f 66/76/51 69/77/53 68/78/48
f 69/77/53 70/79/54 68/78/48
f 70/79/54 67/80/52 68/78/48
f 71/81/55 74/82/57 73/83/48
f 74/82/57 75/84/58 73/85/48
f 75/84/58 72/86/56 73/85/48
f 76/87/59 79/88/61 78/89/48
f 79/88/61 80/90/62 78/89/48
f 80/90/62 77/91/60 78/89/48
f 76/87/59 94/92/76 96/93/78 79/88/61
f 79/88/61 96/93/78 95/94/77 80/95/62
f 80/95/62 95/94/77 93/96/75 77/97/60
f 81/98/63 72/99/56 75/100/58 83/101/65
f 83/101/65 75/100/58 74/82/57 84/102/66
f 84/102/66 74/82/57 71/81/55 82/103/64
f 66/76/51 90/104/72 92/105/74 69/77/53
f 69/77/53 92/105/74 91/106/73 70/107/54
f 70/107/54 91/106/73 89/108/71 67/109/52
f 61/71/46 86/110/68 88/111/70 64/72/49
f 64/72/49 88/111/70 87/112/69 65/113/50
f 65/113/50 87/112/69 85/114/67 62/115/47
f 61/71/46 72/99/56 81/98/63 86/110/68
f 63/73/48 62/115/47 66/76/51 68/78/48 59/52/45 58/41/44
f 73/83/48 72/99/56 61/71/46 63/73/48 58/41/44 57/27/24
f 66/76/51 62/115/47 85/114/67 90/104/72
f 76/87/59 67/109/52 89/108/71 94/92/76
f 68/78/48 67/109/52 76/87/59 78/89/48 60/39/31 59/52/45
f 71/81/55 77/97/60 93/96/75 82/103/64
f 78/89/48 77/97/60 71/81/55 73/83/48 57/27/24 60/39/31
f 85/114/67 87/112/69 88/111/70 86/110/68 81/98/63 83/101/65 84/102/66 82/103/64 93/96/75 95/94/77 96/93/78 94/92/76 89/108/71 91/106/73 92/105/74 90/104/72
o Cylinder
v -0.162809 0.612463 0.108240
v -0.053672 0.612463 0.108240
v -0.162809 0.608723 0.070266
v -0.053672 0.608723 0.070266
v -0.162809 0.597646 0.033751
v -0.053672 0.597646 0.033751
v -0.162809 0.579658 0.000098
v -0.053672 0.579658 0.000098
v -0.162809 0.555451 -0.029399
v -0.053672 0.555451 -0.029399
v -0.162809 0.525954 -0.053606
v -0.053672 0.525954 -0.053606
v -0.162809 0.492302 -0.071594
v -0.053672 0.492302 -0.071594
v -0.162809 0.455786 -0.082671
v -0.053672 0.455786 -0.082671
v -0.162809 0.417812 -0.086411
v -0.053672 0.417812 -0.086411
v -0.162809 0.379837 -0.082671
v -0.053672 0.379837 -0.082671
v -0.162809 0.343322 -0.071594
v -0.053672 0.343322 -0.071594
v -0.162809 0.309669 -0.053606
v -0.053672 0.309669 -0.053606
v -0.162809 0.280173 -0.029399
v -0.053672 0.280173 -0.029399
v -0.162809 0.255965 0.000098
v -0.053672 0.255965 0.000098
v -0.162809 0.237977 0.033751
v -0.053672 0.237977 0.033751
v -0.162809 0.226901 0.070266
v -0.053672 0.226901 0.070266
v -0.162809 0.223161 0.108240
v -0.053672 0.223161 0.108240
v -0.162809 0.226901 0.146215
v -0.053672 0.226901 0.146215
v -0.162809 0.237977 0.182730
v -0.053672 0.237977 0.182730
v -0.162809 0.255965 0.216383
v -0.053672 0.255965 0.216383
v -0.162809 0.280173 0.245879
v -0.053672 0.280173 0.245879
v -0.162809 0.309669 0.270087
v -0.053672 0.309669 0.270087
v -0.162809 0.343322 0.288075
v -0.053672 0.343322 0.288075
v -0.162809 0.379837 0.299151
v -0.053672 0.379837 0.299151
v -0.162809 0.417812 0.302891
v -0.053672 0.417812 0.302891
v -0.162809 0.455786 0.299151
v -0.053672 0.455786 0.299151
v -0.162809 0.492302 0.288075
v -0.053672 0.492302 0.288075
v -0.162809 0.525954 0.270087
v -0.053672 0.525954 0.270087
v -0.162809 0.555451 0.245879
v -0.053672 0.555451 0.245879
v -0.162809 0.579658 0.216383
v -0.053672 0.579658 0.216383
v -0.162809 0.597646 0.182730
v -0.053672 0.597646 0.182730
v -0.162809 0.608723 0.146215
v -0.053672 0.608723 0.146215
v -0.162809 0.612463 -0.319992
v -0.053672 0.612463 -0.319992
v -0.162809 0.608723 -0.357967
v -0.053672 0.608723 -0.357967
v -0.162809 0.597646 -0.394482
v -0.053672 0.597646 -0.394482
v -0.162809 0.579658 -0.428135
v -0.053672 0.579658 -0.428135
v -0.162809 0.555451 -0.457631
v -0.053672 0.555451 -0.457631
v -0.162809 0.525954 -0.481839
v -0.053672 0.525954 -0.481839
v -0.162809 0.492302 -0.499826
v -0.053672 0.492302 -0.499826
v -0.162809 0.455786 -0.510903
v -0.053672 0.455786 -0.510903
v -0.162809 0.417812 -0.514643
v -0.053672 0.417812 -0.514643
v -0.162809 0.379837 -0.510903
v -0.053672 0.379837 -0.510903
v -0.162809 0.343322 -0.499826
v -0.053672 0.343322 -0.499826
v -0.162809 0.309669 -0.481839
v -0.053672 0.309669 -0.481839
v -0.162809 0.280173 -0.457631
v -0.053672 0.280173 -0.457631
v -0.162809 0.255965 -0.428135
v -0.053672 0.255965 -0.428135
v -0.162809 0.237977 -0.394482
v -0.053672 0.237977 -0.394482
v -0.162809 0.226901 -0.357967
v -0.053672 0.226901 -0.357967
v -0.162809 0.223161 -0.319992
v -0.053672 0.223161 -0.319992
v -0.162809 0.226901 -0.282018
v -0.053672 0.226901 -0.282018
v -0.162809 0.237977 -0.245502
v -0.053672 0.237977 -0.245502
v -0.162809 0.255965 -0.211850
v -0.053672 0.255965 -0.211850
v -0.162809 0.280173 -0.182353
v -0.053672 0.280173 -0.182353
v -0.162809 0.309669 -0.158146
v -0.053672 0.309669 -0.158146
v -0.162809 0.343322 -0.140158
v -0.053672 0.343322 -0.140158
v -0.162809 0.379837 -0.129081
v -0.053672 0.379837 -0.129081
v -0.162809 0.417812 -0.125341
v -0.053672 0.417812 -0.125341
v -0.162809 0.455786 -0.129081
v -0.053672 0.455786 -0.129081
v -0.162809 0.492302 -0.140158
v -0.053672 0.492302 -0.140158
v -0.162809 0.525954 -0.158146
v -0.053672 0.525954 -0.158146
v -0.162809 0.555451 -0.182353
v -0.053672 0.555451 -0.182353
v -0.162809 0.579658 -0.211850
v -0.053672 0.579658 -0.211850
v -0.162809 0.597646 -0.245502
v -0.053672 0.597646 -0.245502
v -0.162809 0.608723 -0.282018
v -0.053672 0.608723 -0.282018
vn -0.9585 0.2852 -0.0000
vn 0.9585 0.2852 -0.0000
vn -0.9585 0.2797 -0.0556
vn 0.9585 0.2797 -0.0556
vn -0.9585 0.2635 -0.1092
vn 0.9585 0.2635 -0.1092
vn -0.9585 0.2372 -0.1585
vn 0.9585 0.2372 -0.1585
vn -0.9585 0.2017 -0.2017
vn 0.9585 0.2017 -0.2017
vn -0.9585 0.1585 -0.2372
vn 0.9585 0.1585 -0.2372
vn -0.9585 0.1092 -0.2635
vn 0.9585 0.1092 -0.2635
vn -0.9585 0.0556 -0.2797
vn 0.9585 0.0556 -0.2797
vn -0.9585 -0.0000 -0.2852
vn 0.9585 -0.0000 -0.2852
vn -0.9585 -0.0556 -0.2797
vn 0.9585 -0.0556 -0.2797
vn -0.9585 -0.1092 -0.2635
vn 0.9585 -0.1092 -0.2635
vn -0.9585 -0.1585 -0.2372
vn 0.9585 -0.1585 -0.2372
vn -0.9585 -0.2017 -0.2017
vn 0.9585 -0.2017 -0.2017
vn -0.9585 -0.2372 -0.1585
vn 0.9585 -0.2372 -0.1585
vn -0.9585 -0.2635 -0.1092
vn 0.9585 -0.2635 -0.1092
vn -0.9585 -0.2797 -0.0556
vn 0.9585 -0.2797 -0.0556
vn -0.9585 -0.2852 -0.0000
vn 0.9585 -0.2852 -0.0000
vn -0.9585 -0.2797 0.0556
vn 0.9585 -0.2797 0.0556
vn -0.9585 -0.2635 0.1092
vn 0.9585 -0.2635 0.1092
vn -0.9585 -0.2372 0.1585
vn 0.9585 -0.2372 0.1585
vn -0.9585 -0.2017 0.2017
vn 0.9585 -0.2017 0.2017
vn -0.9585 -0.1585 0.2372
vn 0.9585 -0.1585 0.2372
vn -0.9585 -0.1092 0.2635
vn 0.9585 -0.1092 0.2635
vn -0.9585 -0.0556 0.2797
vn 0.9585 -0.0556 0.2797
vn -0.9585 -0.0000 0.2852
vn 0.9585 -0.0000 0.2852
vn -0.9585 0.0556 0.2797
vn 0.9585 0.0556 0.2797
vn -0.9585 0.1092 0.2635
vn 0.9585 0.1092 0.2635
vn -0.9585 0.1585 0.2372
vn 0.9585 0.1585 0.2372
vn -0.9585 0.2017 0.2017
vn 0.9585 0.2017 0.2017
vn -0.9585 0.2372 0.1585
vn 0.9585 0.2372 0.1585
vn -0.9585 0.2635 0.1092
vn 0.9585 0.2635 0.1092
vn -0.9585 0.2797 0.0556
vn 0.9585 0.2797 0.0556
vt 1.000000 0.500000
vt 1.000000 1.000000
vt 0.968750 1.000000
vt 0.968750 0.500000
vt 0.937500 1.000000
vt 0.937500 0.500000
vt 0.906250 1.000000
vt 0.906250 0.500000
vt 0.875000 1.000000
vt 0.875000 0.500000
vt 0.843750 1.000000
vt 0.843750 0.500000
vt 0.812500 1.000000
vt 0.812500 0.500000
vt 0.781250 1.000000
vt 0.781250 0.500000
vt 0.750000 1.000000
vt 0.750000 0.500000
vt 0.718750 1.000000
vt 0.718750 0.500000
vt 0.687500 1.000000
vt 0.687500 0.500000
vt 0.656250 1.000000
vt 0.656250 0.500000
vt 0.625000 1.000000
vt 0.625000 0.500000
vt 0.593750 1.000000
vt 0.593750 0.500000
vt 0.562500 1.000000
vt 0.562500 0.500000
vt 0.531250 1.000000
vt 0.531250 0.500000
vt 0.500000 1.000000
vt 0.500000 0.500000
vt 0.468750 1.000000
vt 0.468750 0.500000
vt 0.437500 1.000000
vt 0.437500 0.500000
vt 0.406250 1.000000
vt 0.406250 0.500000
vt 0.375000 1.000000
vt 0.375000 0.500000
vt 0.343750 1.000000
vt 0.343750 0.500000
vt 0.312500 1.000000
vt 0.312500 0.500000
vt 0.281250 1.000000
vt 0.281250 0.500000
vt 0.250000 1.000000
vt 0.250000 0.500000
vt 0.218750 1.000000
vt 0.218750 0.500000
vt 0.187500 1.000000
vt 0.187500 0.500000
vt 0.156250 1.000000
vt 0.156250 0.500000
vt 0.125000 1.000000
vt 0.125000 0.500000
vt 0.093750 1.000000
vt 0.093750 0.500000
vt 0.062500 1.000000
vt 0.062500 0.500000
vt 0.296822 0.485388
vt 0.250000 0.490000
vt 0.203178 0.485388
vt 0.158156 0.471731
vt 0.116663 0.449553
vt 0.080294 0.419706
vt 0.050447 0.383337
vt 0.028269 0.341844
vt 0.014612 0.296822
vt 0.010000 0.250000
vt 0.014612 0.203178
vt 0.028269 0.158156
vt 0.050447 0.116663
vt 0.080294 0.080294
vt 0.116663 0.050447
vt 0.158156 0.028269
vt 0.203178 0.014612
vt 0.250000 0.010000
vt 0.296822 0.014612
vt 0.341844 0.028269
vt 0.383337 0.050447
vt 0.419706 0.080294
vt 0.449553 0.116663
vt 0.471731 0.158156
vt 0.485388 0.203178
vt 0.490000 0.250000
vt 0.485388 0.296822
vt 0.471731 0.341844
vt 0.449553 0.383337
vt 0.419706 0.419706
vt 0.383337 0.449553
vt 0.341844 0.471731
vt 0.031250 1.000000
vt 0.031250 0.500000
vt 0.000000 1.000000
vt 0.000000 0.500000
vt 0.750000 0.490000
vt 0.796822 0.485388
vt 0.841844 0.471731
vt 0.883337 0.449553
vt 0.919706 0.419706
vt 0.949553 0.383337
vt 0.971731 0.341844
vt 0.985388 0.296822
vt 0.990000 0.250000
vt 0.985388 0.203178
vt 0.971731 0.158156
vt 0.949553 0.116663
vt 0.919706 0.080294
vt 0.883337 0.050447
vt 0.841844 0.028269
vt 0.796822 0.014612
vt 0.750000 0.010000
vt 0.703178 0.014612
vt 0.658156 0.028269
vt 0.616663 0.050447
vt 0.580294 0.080294
vt 0.550447 0.116663
vt 0.528269 0.158156
vt 0.514612 0.203178
vt 0.510000 0.250000
vt 0.514612 0.296822
vt 0.528269 0.341844
vt 0.550447 0.383337
vt 0.580294 0.419706
vt 0.616663 0.449553
vt 0.658156 0.471731
vt 0.703178 0.485388
s 1
usemtl 
f 97/116/79 98/117/80 100/118/82 99/119/81
f 99/119/81 100/118/82 102/120/84 101/121/83
f 101/121/83 102/120/84 104/122/86 103/123/85
f 103/123/85 104/122/86 106/124/88 105/125/87
f 105/125/87 106/124/88 108/126/90 107/127/89
f 107/127/89 108/126/90 110/128/92 109/129/91
f 109/129/91 110/128/92 112/130/94 111/131/93
f 111/131/93 112/130/94 114/132/96 113/133/95
f 113/133/95 114/132/96 116/134/98 115/135/97
f 115/135/97 116/134/98 118/136/100 117/137/99
f 117/137/99 118/136/100 120/138/102 119/139/101
f 119/139/101 120/138/102 122/140/104 121/141/103
f 121/141/103 122/140/104 124/142/106 123/143/105
f 123/143/105 124/142/106 126/144/108 125/145/107
f 125/145/107 126/144/108 128/146/110 127/147/109
f 127/147/109 128/146/110 130/148/112 129/149/111
f 129/149/111 130/148/112 132/150/114 131/151/113
f 131/151/113 132/150/114 134/152/116 133/153/115
f 133/153/115 134/152/116 136/154/118 135/155/117
f 135/155/117 136/154/118 138/156/120 137/157/119
f 137/157/119 138/156/120 140/158/122 139/159/121
f 139/159/121 140/158/122 142/160/124 141/161/123
f 141/161/123 142/160/124 144/162/126 143/163/125
f 143/163/125 144/162/126 146/164/128 145/165/127
f 145/165/127 146/164/128 148/166/130 147/167/129
f 147/167/129 148/166/130 150/168/132 149/169/131
f 149/169/131 150/168/132 152/170/134 151/171/133
f 151/171/133 152/170/134 154/172/136 153/173/135
f 153/173/135 154/172/136 156/174/138 155/175/137
f 155/175/137 156/174/138 158/176/140 157/177/139
f 100/178/82 98/179/80 160/180/142 158/181/140 156/182/138 154/183/136 152/184/134 150/185/132 148/186/130 146/187/128 144/188/126 142/189/124 140/190/122 138/191/120 136/192/118 134/193/116 132/194/114 130/195/112 128/196/110 126/197/108 124/198/106 122/199/104 120/200/102 118/201/100 116/202/98 114/203/96 112/204/94 110/205/92 108/206/90 106/207/88 104/208/86 102/209/84
f 157/177/139 158/176/140 160/210/142 159/211/141
f 159/211/141 160/210/142 98/212/80 97/213/79
f 97/214/79 99/215/81 101/216/83 103/217/85 105/218/87 107/219/89 109/220/91 111/221/93 113/222/95 115/223/97 117/224/99 119/225/101 121/226/103 123/227/105 125/228/107 127/229/109 129/230/111 131/231/113 133/232/115 135/233/117 137/234/119 139/235/121 141/236/123 143/237/125 145/238/127 147/239/129 149/240/131 151/241/133 153/242/135 155/243/137 157/244/139 159/245/141
f 161/116/79 162/117/80 164/118/82 163/119/81
f 163/119/81 164/118/82 166/120/84 165/121/83
f 165/121/83 166/120/84 168/122/86 167/123/85
f 167/123/85 168/122/86 170/124/88 169/125/87
f 169/125/87 170/124/88 172/126/90 171/127/89
f 171/127/89 172/126/90 174/128/92 173/129/91
f 173/129/91 174/128/92 176/130/94 175/131/93
f 175/131/93 176/130/94 178/132/96 177/133/95
f 177/133/95 178/132/96 180/134/98 179/135/97
f 179/135/97 180/134/98 182/136/100 181/137/99
f 181/137/99 182/136/100 184/138/102 183/139/101
f 183/139/101 184/138/102 186/140/104 185/141/103
f 185/141/103 186/140/104 188/142/106 187/143/105
f 187/143/105 188/142/106 190/144/108 189/145/107
f 189/145/107 190/144/108 192/146/110 191/147/109
f 191/147/109 192/146/110 194/148/112 193/149/111
f 193/149/111 194/148/112 196/150/114 195/151/113
f 195/151/113 196/150/114 198/152/116 197/153/115
f 197/153/115 198/152/116 200/154/118 199/155/117
f 199/155/117 200/154/118 202/156/120 201/157/119
f 201/157/119 202/156/120 204/158/122 203/159/121
f 203/159/121 204/158/122 206/160/124 205/161/123
f 205/161/123 206/160/124 208/162/126 207/163/125
f 207/163/125 208/162/126 210/164/128 209/165/127
f 209/165/127 210/164/128 212/166/130 211/167/129
f 211/167/129 212/166/130 214/168/132 213/169/131
f 213/169/131 214/168/132 216/170/134 215/171/133
f 215/171/133 216/170/134 218/172/136 217/173/135
f 217/173/135 218/172/136 220/174/138 219/175/137
f 219/175/137 220/174/138 222/176/140 221/177/139
f 164/178/82 162/179/80 224/180/142 222/181/140 220/182/138 218/183/136 216/184/134 214/185/132 212/186/130 210/187/128 208/188/126 206/189/124 204/190/122 202/191/120 200/192/118 198/193/116 196/194/114 194/195/112 192/196/110 190/197/108 188/198/106 186/199/104 184/200/102 182/201/100 180/202/98 178/203/96 176/204/94 174/205/92 172/206/90 170/207/88 168/208/86 166/209/84
f 221/177/139 222/176/140 224/210/142 223/211/141
f 223/211/141 224/210/142 162/212/80 161/213/79
f 161/214/79 163/215/81 165/216/83 167/217/85 169/218/87 171/219/89 173/220/91 175/221/93 177/222/95 179/223/97 181/224/99 183/225/101 185/226/103 187/227/105 189/228/107 191/229/109 193/230/111 195/231/113 197/232/115 199/233/117 201/234/119 203/235/121 205/236/123 207/237/125 209/238/127 211/239/129 213/240/131 215/241/133 217/242/135 219/243/137 221/244/139 223/245/141
