# Blender 5.1.0
# www.blender.org
mtllib move.mtl
o y
v -0.200234 0.282599 0.049766
v -0.119583 0.363250 0.049766
v -0.200234 0.363250 0.130417
v -0.143205 0.306221 0.049766
v -0.153670 0.316686 0.096330
v -0.143205 0.363250 0.106795
v -0.200234 0.306221 0.106795
v -0.200234 3.094684 0.130417
v -0.119583 3.094684 0.049766
v -0.062555 3.094684 0.187445
v -0.143205 3.094684 0.106795
v -0.299766 0.282599 0.049766
v -0.299766 0.363250 0.130417
v -0.380417 0.363250 0.049766
v -0.299766 0.306221 0.106795
v -0.346330 0.316686 0.096330
v -0.356795 0.363250 0.106795
v -0.356795 0.306221 0.049766
v -0.380417 3.094684 0.049766
v -0.299766 3.094684 0.130417
v -0.437445 3.094684 0.187445
v -0.356795 3.094684 0.106795
v -0.200234 0.282599 -0.049766
v -0.200234 0.363250 -0.130417
v -0.119583 0.363250 -0.049766
v -0.200234 0.306221 -0.106795
v -0.153670 0.316686 -0.096330
v -0.143205 0.363250 -0.106795
v -0.143205 0.306221 -0.049766
v -0.119583 3.094684 -0.049766
v -0.200234 3.094684 -0.130417
v -0.062555 3.094684 -0.187445
v -0.143205 3.094684 -0.106795
v -0.299766 0.282599 -0.049766
v -0.380417 0.363250 -0.049766
v -0.299766 0.363250 -0.130417
v -0.356795 0.306221 -0.049766
v -0.346330 0.316686 -0.096330
v -0.356795 0.363250 -0.106795
v -0.299766 0.306221 -0.106795
v -0.299766 3.094684 -0.130417
v -0.380417 3.094684 -0.049766
v -0.437445 3.094684 -0.187445
v -0.356795 3.094684 -0.106795
v 0.102955 3.094684 0.352955
v 0.138534 3.161565 0.296144
v 0.046144 3.161565 0.388535
v 0.146783 3.114273 0.324550
v 0.124159 3.125758 0.374159
v 0.102367 3.175080 0.352367
v 0.074550 3.114273 0.396783
v -0.546144 3.161565 0.388534
v -0.638535 3.161565 0.296144
v -0.602955 3.094684 0.352955
v -0.602367 3.175080 0.352367
v -0.624159 3.125758 0.374159
v -0.646783 3.114273 0.324550
v -0.574550 3.114273 0.396783
v -0.638534 3.161565 -0.296144
v -0.546144 3.161565 -0.388535
v -0.602955 3.094684 -0.352955
v -0.602367 3.175080 -0.352367
v -0.624159 3.125758 -0.374159
v -0.574550 3.114273 -0.396783
v -0.646783 3.114273 -0.324550
v 0.046144 3.161565 -0.388534
v 0.138535 3.161565 -0.296144
v 0.102955 3.094684 -0.352955
v 0.102367 3.175080 -0.352367
v 0.124159 3.125758 -0.374159
v 0.146783 3.114273 -0.324550
v 0.074550 3.114273 -0.396783
v -0.250000 3.601014 0.092390
v -0.157610 3.601014 0.000000
v -0.250000 3.601014 -0.092390
v -0.342390 3.601014 0.000000
v -0.193778 3.614529 0.056222
v -0.250000 3.650880 0.000000
v -0.193778 3.614529 -0.056222
v -0.306222 3.614529 -0.056222
v -0.306222 3.614529 0.056222
vn 0.1794 -0.9673 0.1794
vn 0.9673 -0.1794 0.1794
vn 0.1794 -0.1794 0.9673
vn 0.6965 -0.6965 0.1726
vn 0.5774 -0.5774 0.5774
vn 0.6965 -0.1726 0.6965
vn 0.1726 -0.6965 0.6965
vn 0.1282 -0.7538 0.6445
vn 0.6445 -0.7538 0.1282
vn -0.0000 -1.0000 -0.0000
vn 0.4203 -0.8042 0.4203
vn -0.1794 -0.9673 0.1794
vn -0.1794 -0.1794 0.9673
vn -0.9673 -0.1794 0.1794
vn -0.1726 -0.6965 0.6965
vn -0.5774 -0.5774 0.5774
vn -0.6965 -0.1726 0.6965
vn -0.6965 -0.6965 0.1726
vn -0.6445 -0.7538 0.1282
vn -0.1282 -0.7538 0.6445
vn -0.4203 -0.8042 0.4203
vn 0.1794 -0.9673 -0.1794
vn 0.1794 -0.1794 -0.9673
vn 0.9673 -0.1794 -0.1794
vn 0.1726 -0.6965 -0.6965
vn 0.5774 -0.5774 -0.5774
vn 0.6965 -0.1726 -0.6965
vn 0.6965 -0.6965 -0.1726
vn 0.6445 -0.7538 -0.1282
vn 0.1282 -0.7538 -0.6445
vn 0.4203 -0.8042 -0.4203
vn -0.1794 -0.9673 -0.1794
vn -0.9673 -0.1794 -0.1794
vn -0.1794 -0.1794 -0.9673
vn -0.6965 -0.6965 -0.1726
vn -0.5774 -0.5774 -0.5774
vn -0.6965 -0.1726 -0.6965
vn -0.1726 -0.6965 -0.6965
vn -0.1282 -0.7538 -0.6445
vn -0.6445 -0.7538 -0.1282
vn -0.4203 -0.8042 -0.4203
vn 0.2882 -0.9131 0.2882
vn 0.8821 0.4428 0.1606
vn 0.1606 0.4428 0.8821
vn 0.8992 -0.3602 0.2484
vn 0.7061 -0.0543 0.7061
vn 0.5724 0.5870 0.5724
vn 0.2484 -0.3602 0.8992
vn -0.1606 0.4428 0.8821
vn -0.8821 0.4428 0.1606
vn -0.2882 -0.9131 0.2882
vn -0.5724 0.5870 0.5724
vn -0.7061 -0.0543 0.7061
vn -0.8992 -0.3602 0.2484
vn -0.2484 -0.3602 0.8992
vn -0.8821 0.4428 -0.1606
vn -0.1606 0.4428 -0.8821
vn -0.2882 -0.9131 -0.2882
vn -0.5724 0.5870 -0.5724
vn -0.7061 -0.0543 -0.7061
vn -0.2484 -0.3602 -0.8992
vn -0.8992 -0.3602 -0.2484
vn 0.1606 0.4428 -0.8821
vn 0.8821 0.4428 -0.1606
vn 0.2882 -0.9131 -0.2882
vn 0.5724 0.5870 -0.5724
vn 0.7061 -0.0543 -0.7061
vn 0.8992 -0.3602 -0.2484
vn 0.2484 -0.3602 -0.8992
vn -0.0000 0.7409 0.6716
vn 0.6716 0.7409 -0.0000
vn -0.0000 0.7409 -0.6716
vn -0.6716 0.7409 -0.0000
vn 0.3974 0.8271 0.3974
vn -0.0000 1.0000 -0.0000
vn 0.3974 0.8271 -0.3974
vn -0.3974 0.8271 -0.3974
vn -0.3974 0.8271 0.3974
vt 0.202301 0.672699
vt 0.202301 0.750000
vt 0.157671 0.750000
vt 0.125000 0.672699
vt 0.382170 0.922699
vt 0.382170 1.000000
vt 0.378030 1.000000
vt 0.375000 0.922699
vt 0.382170 0.077301
vt 0.375000 0.077301
vt 0.375000 0.032671
vt 0.382170 0.000000
vt 0.625000 0.077301
vt 0.625000 0.022641
vt 0.625000 0.000000
vt 0.202301 0.577301
vt 0.125000 0.577301
vt 0.125000 0.532671
vt 0.202301 0.500000
vt 0.382170 0.172699
vt 0.382170 0.250000
vt 0.376515 0.266336
vt 0.375000 0.172699
vt 0.382170 0.327301
vt 0.375000 0.327301
vt 0.625000 0.327301
vt 0.625000 0.272641
vt 0.625000 0.250000
vt 0.297699 0.672699
vt 0.375000 0.672699
vt 0.376010 0.750000
vt 0.336350 0.788650
vt 0.382170 0.672699
vt 0.382170 0.750000
vt 0.382170 0.827301
vt 0.625000 0.827301
vt 0.625000 0.772641
vt 0.625000 0.750000
vt 0.297699 0.577301
vt 0.336350 0.461350
vt 0.365120 0.510890
vt 0.375000 0.577301
vt 0.382170 0.422699
vt 0.382170 0.500000
vt 0.382170 0.577301
vt 0.625000 0.577301
vt 0.625000 0.522641
vt 0.625000 0.500000
vt 0.625000 1.000000
vt 0.625000 0.968561
vt 0.625000 0.991431
vt 0.625000 1.040368
vt 0.625000 0.973366
vt 0.625000 0.052621
vt 0.625000 0.031439
vt 0.625000 0.017137
vt 0.625000 0.038663
vt 0.625000 0.223366
vt 0.625000 0.269332
vt 0.625000 0.218561
vt 0.625000 0.302621
vt 0.625000 0.283671
vt 0.625000 0.473366
vt 0.625000 0.519332
vt 0.625000 0.468561
vt 0.625000 0.552621
vt 0.625000 0.533671
vt 0.625000 0.723366
vt 0.625000 0.769332
vt 0.625000 0.718561
vt 0.625000 0.802621
vt 0.625000 0.783671
vt 0.625000 0.223366
vt 0.625000 0.209409
vt 0.625000 0.232239
vt 0.625000 0.959409
vt 0.625000 0.982239
vt 0.625000 0.709409
vt 0.625000 0.732239
vt 0.625000 0.459409
vt 0.625000 0.482239
vt 0.625000 0.922699
vt 0.625000 0.172699
vt 0.625000 0.422699
vt 0.625000 0.672699
s 1
usemtl Material.001
f 1/1/1 4/2/4 5/3/5 7/4/7
f 2/5/2 6/6/6 5/7/5 4/8/4
f 3/9/3 7/10/7 5/11/5 6/12/6
f 8/13/8 11/14/11 10/15/10
f 11/14/11 9/15/9 10/15/10
f 12/16/12 15/17/15 16/18/16 18/19/18
f 13/20/13 17/21/17 16/22/16 15/23/15
f 14/24/14 18/25/18 16/22/16 17/21/17
f 19/26/19 22/27/21 21/28/10
f 22/27/21 20/28/20 21/28/10
f 23/29/22 26/30/25 27/31/26 29/32/28
f 24/33/23 28/34/27 27/31/26 26/30/25
f 25/35/24 29/32/28 27/31/26 28/34/27
f 30/36/29 33/37/31 32/38/10
f 33/37/31 31/38/30 32/38/10
f 34/39/32 37/40/35 38/41/36 40/42/38
f 35/43/33 39/44/37 38/41/36 37/40/35
f 36/45/34 40/42/38 38/41/36 39/44/37
f 41/46/39 44/47/41 43/48/10
f 44/47/41 42/48/40 43/48/10
f 45/49/42 48/50/45 49/51/46 51/52/48
f 46/53/43 50/49/47 49/51/46 48/50/45
f 47/54/44 51/55/48 49/56/46 50/57/47
f 52/58/49 55/59/52 56/28/53 58/60/55
f 53/61/50 57/62/54 56/28/53 55/59/52
f 54/28/51 58/60/55 56/28/53 57/62/54
f 59/63/56 62/64/59 63/48/60 65/65/62
f 60/66/57 64/67/61 63/48/60 62/64/59
f 61/48/58 65/65/62 63/48/60 64/67/61
f 66/68/63 69/69/66 70/38/67 72/70/69
f 67/71/64 71/72/68 70/38/67 69/69/66
f 68/38/65 72/70/69 70/38/67 71/72/68
f 73/73/70 77/74/74 78/75/75 81/28/78
f 74/53/71 79/76/76 78/77/75 77/49/74
f 75/68/72 80/78/77 78/79/75 79/38/76
f 76/63/73 81/80/78 78/81/75 80/48/77
f 12/16/12 1/1/1 7/4/7 15/17/15
f 15/23/15 7/10/7 3/9/3 13/20/13
f 2/5/2 9/82/9 11/49/11 6/6/6
f 6/12/6 11/15/11 8/13/8 3/9/3
f 19/26/19 14/24/14 17/21/17 22/28/21
f 22/28/21 17/21/17 13/20/13 20/83/20
f 34/39/32 12/16/12 18/19/18 37/40/35
f 37/40/35 18/25/18 14/24/14 35/43/33
f 41/46/39 36/45/34 39/44/37 44/48/41
f 44/48/41 39/44/37 35/43/33 42/84/40
f 23/29/22 34/39/32 40/42/38 26/30/25
f 26/30/25 40/42/38 36/45/34 24/33/23
f 30/36/29 25/35/24 28/34/27 33/38/31
f 33/38/31 28/34/27 24/33/23 31/85/30
f 1/1/1 23/29/22 29/32/28 4/2/4
f 4/8/4 29/32/28 25/35/24 2/5/2
f 47/54/44 52/58/49 58/60/55 51/55/48
f 51/55/48 58/60/55 54/28/51 45/15/42
f 53/61/50 59/63/56 65/65/62 57/62/54
f 57/62/54 65/65/62 61/48/58 54/28/51
f 60/66/57 66/68/63 72/70/69 64/67/61
f 64/67/61 72/70/69 68/38/65 61/48/58
f 67/71/64 46/53/43 48/50/45 71/72/68
f 71/72/68 48/50/45 45/49/42 68/38/65
f 46/53/43 74/53/71 77/49/74 50/49/47
f 50/57/47 77/74/74 73/73/70 47/54/44
f 59/63/56 76/63/73 80/48/77 62/64/59
f 62/64/59 80/78/77 75/68/72 60/66/57
f 74/53/71 67/71/64 69/69/66 79/76/76
f 79/38/76 69/69/66 66/68/63 75/68/72
f 76/63/73 53/61/50 55/59/52 81/80/78
f 81/28/78 55/59/52 52/58/49 73/73/70
f 12/16/12 34/39/32 23/29/22 1/1/1
f 3/9/3 8/13/8 20/83/20 13/20/13
f 25/35/24 30/36/29 9/82/9 2/5/2
f 10/49/10 9/82/9 30/36/29 32/38/10 68/38/65 45/49/42
f 21/28/10 20/83/20 8/13/8 10/15/10 45/15/42 54/28/51
f 14/24/14 19/26/19 42/84/40 35/43/33
f 43/48/10 42/84/40 19/26/19 21/28/10 54/28/51 61/48/58
f 36/45/34 41/46/39 31/85/30 24/33/23
f 32/38/10 31/85/30 41/46/39 43/48/10 61/48/58 68/38/65
f 46/53/43 67/71/64 74/53/71
f 52/58/49 47/54/44 73/73/70
f 59/63/56 53/61/50 76/63/73
f 66/68/63 60/66/57 75/68/72
o x
v 0.032599 -0.049766 0.049766
v 0.113250 -0.130417 0.049766
v 0.113250 -0.049766 0.130417
v 0.056221 -0.106795 0.049766
v 0.066686 -0.096330 0.096330
v 0.113250 -0.106795 0.106795
v 0.056221 -0.049766 0.106795
v 2.844684 -0.049766 0.130417
v 2.844684 -0.130417 0.049766
v 2.844684 -0.187445 0.187445
v 2.844684 -0.106795 0.106795
v 0.032599 0.049766 0.049766
v 0.113250 0.049766 0.130417
v 0.113250 0.130417 0.049766
v 0.056221 0.049766 0.106795
v 0.066686 0.096330 0.096330
v 0.113250 0.106795 0.106795
v 0.056221 0.106795 0.049766
v 2.844684 0.130417 0.049766
v 2.844684 0.049766 0.130417
v 2.844684 0.187445 0.187445
v 2.844684 0.106795 0.106795
v 0.032599 -0.049766 -0.049766
v 0.113250 -0.049766 -0.130417
v 0.113250 -0.130417 -0.049766
v 0.056221 -0.049766 -0.106795
v 0.066686 -0.096330 -0.096330
v 0.113250 -0.106795 -0.106795
v 0.056221 -0.106795 -0.049766
v 2.844684 -0.130417 -0.049766
v 2.844684 -0.049766 -0.130417
v 2.844684 -0.187445 -0.187445
v 2.844684 -0.106795 -0.106795
v 0.032599 0.049766 -0.049766
v 0.113250 0.130417 -0.049766
v 0.113250 0.049766 -0.130417
v 0.056221 0.106795 -0.049766
v 0.066686 0.096330 -0.096330
v 0.113250 0.106795 -0.106795
v 0.056221 0.049766 -0.106795
v 2.844684 0.049766 -0.130417
v 2.844684 0.130417 -0.049766
v 2.844684 0.187445 -0.187445
v 2.844684 0.106795 -0.106795
v 2.844684 -0.352955 0.352955
v 2.911565 -0.388535 0.296144
v 2.911565 -0.296145 0.388534
v 2.864273 -0.396783 0.324550
v 2.875758 -0.374159 0.374159
v 2.925080 -0.352367 0.352367
v 2.864273 -0.324550 0.396782
v 2.911565 0.296144 0.388534
v 2.911565 0.388534 0.296144
v 2.844684 0.352955 0.352955
v 2.925080 0.352367 0.352366
v 2.875758 0.374159 0.374159
v 2.864273 0.396782 0.324550
v 2.864273 0.324550 0.396782
v 2.911565 0.388534 -0.296145
v 2.911565 0.296144 -0.388535
v 2.844684 0.352955 -0.352955
v 2.925080 0.352366 -0.352367
v 2.875758 0.374159 -0.374159
v 2.864273 0.324550 -0.396783
v 2.864273 0.396782 -0.324550
v 2.911565 -0.296145 -0.388535
v 2.911565 -0.388535 -0.296145
v 2.844684 -0.352955 -0.352955
v 2.925080 -0.352367 -0.352367
v 2.875758 -0.374159 -0.374159
v 2.864273 -0.396783 -0.324550
v 2.864273 -0.324550 -0.396783
v 3.351014 -0.000000 0.092390
v 3.351014 -0.092390 -0.000000
v 3.351014 -0.000000 -0.092390
v 3.351014 0.092390 -0.000000
v 3.364529 -0.056222 0.056222
v 3.400880 -0.000000 -0.000000
v 3.364529 -0.056222 -0.056222
v 3.364529 0.056222 -0.056222
v 3.364529 0.056222 0.056222
vn -0.9673 -0.1794 0.1794
vn -0.1794 -0.9673 0.1794
vn -0.1794 -0.1794 0.9673
vn -0.6965 -0.6965 0.1726
vn -0.5774 -0.5774 0.5774
vn -0.1726 -0.6965 0.6965
vn -0.6965 -0.1726 0.6965
vn -0.7538 -0.1282 0.6445
vn -0.7538 -0.6445 0.1282
vn -1.0000 -0.0000 -0.0000
vn -0.8042 -0.4203 0.4203
vn -0.9673 0.1794 0.1794
vn -0.1794 0.1794 0.9673
vn -0.1794 0.9673 0.1794
vn -0.6965 0.1726 0.6965
vn -0.5774 0.5774 0.5774
vn -0.1726 0.6965 0.6965
vn -0.6965 0.6965 0.1726
vn -0.7538 0.6445 0.1282
vn -0.7538 0.1282 0.6445
vn -0.8042 0.4203 0.4203
vn -0.9673 -0.1794 -0.1794
vn -0.1794 -0.1794 -0.9673
vn -0.1794 -0.9673 -0.1794
vn -0.6965 -0.1726 -0.6965
vn -0.5774 -0.5774 -0.5774
vn -0.1726 -0.6965 -0.6965
vn -0.6965 -0.6965 -0.1726
vn -0.7538 -0.6445 -0.1282
vn -0.7538 -0.1282 -0.6445
vn -0.8042 -0.4203 -0.4203
vn -0.9673 0.1794 -0.1794
vn -0.1794 0.9673 -0.1794
vn -0.1794 0.1794 -0.9673
vn -0.6965 0.6965 -0.1726
vn -0.5774 0.5774 -0.5774
vn -0.1726 0.6965 -0.6965
vn -0.6965 0.1726 -0.6965
vn -0.7538 0.1282 -0.6445
vn -0.7538 0.6445 -0.1282
vn -0.8042 0.4203 -0.4203
vn -0.9131 -0.2882 0.2882
vn 0.4428 -0.8821 0.1606
vn 0.4428 -0.1606 0.8821
vn -0.3602 -0.8992 0.2484
vn -0.0543 -0.7061 0.7061
vn 0.5870 -0.5724 0.5724
vn -0.3602 -0.2484 0.8992
vn 0.4428 0.1606 0.8821
vn 0.4428 0.8821 0.1606
vn -0.9131 0.2882 0.2882
vn 0.5870 0.5724 0.5724
vn -0.0543 0.7061 0.7061
vn -0.3602 0.8992 0.2484
vn -0.3602 0.2484 0.8992
vn 0.4428 0.8821 -0.1606
vn 0.4428 0.1606 -0.8821
vn -0.9131 0.2882 -0.2882
vn 0.5870 0.5724 -0.5724
vn -0.0543 0.7061 -0.7061
vn -0.3602 0.2484 -0.8992
vn -0.3602 0.8992 -0.2484
vn 0.4428 -0.1606 -0.8821
vn 0.4428 -0.8821 -0.1606
vn -0.9131 -0.2882 -0.2882
vn 0.5870 -0.5724 -0.5724
vn -0.0543 -0.7061 -0.7061
vn -0.3602 -0.8992 -0.2484
vn -0.3602 -0.2484 -0.8992
vn 0.7409 -0.0000 0.6716
vn 0.7409 -0.6716 -0.0000
vn 0.7409 -0.0000 -0.6716
vn 0.7409 0.6716 -0.0000
vn 0.8271 -0.3974 0.3974
vn 1.0000 -0.0000 -0.0000
vn 0.8271 -0.3974 -0.3974
vn 0.8271 0.3974 -0.3974
vn 0.8271 0.3974 0.3974
vt 0.202301 0.672699
vt 0.202301 0.750000
vt 0.157671 0.750000
vt 0.125000 0.672699
vt 0.382170 0.922699
vt 0.382170 1.000000
vt 0.378030 1.000000
vt 0.375000 0.922699
vt 0.382170 0.077301
vt 0.375000 0.077301
vt 0.375000 0.032671
vt 0.382170 0.000000
vt 0.625000 0.077301
vt 0.625000 0.022641
vt 0.625000 0.000000
vt 0.202301 0.577301
vt 0.125000 0.577301
vt 0.125000 0.532671
vt 0.202301 0.500000
vt 0.382170 0.172699
vt 0.382170 0.250000
vt 0.376515 0.266336
vt 0.375000 0.172699
vt 0.382170 0.327301
vt 0.375000 0.327301
vt 0.625000 0.327301
vt 0.625000 0.272641
vt 0.625000 0.250000
vt 0.297699 0.672699
vt 0.375000 0.672699
vt 0.376010 0.750000
vt 0.336350 0.788650
vt 0.382170 0.672699
vt 0.382170 0.750000
vt 0.382170 0.827301
vt 0.625000 0.827301
vt 0.625000 0.772641
vt 0.625000 0.750000
vt 0.297699 0.577301
vt 0.336350 0.461350
vt 0.365120 0.510890
vt 0.375000 0.577301
vt 0.382170 0.422699
vt 0.382170 0.500000
vt 0.382170 0.577301
vt 0.625000 0.577301
vt 0.625000 0.522641
vt 0.625000 0.500000
vt 0.625000 1.000000
vt 0.625000 0.968561
vt 0.625000 0.991431
vt 0.625000 1.040368
vt 0.625000 0.973366
vt 0.625000 0.052621
vt 0.625000 0.031439
vt 0.625000 0.017137
vt 0.625000 0.038663
vt 0.625000 0.223366
vt 0.625000 0.269332
vt 0.625000 0.218561
vt 0.625000 0.302621
vt 0.625000 0.283671
vt 0.625000 0.473366
vt 0.625000 0.519332
vt 0.625000 0.468561
vt 0.625000 0.552621
vt 0.625000 0.533671
vt 0.625000 0.723366
vt 0.625000 0.769332
vt 0.625000 0.718561
vt 0.625000 0.802621
vt 0.625000 0.783671
vt 0.625000 0.223366
vt 0.625000 0.209409
vt 0.625000 0.232239
vt 0.625000 0.959409
vt 0.625000 0.982239
vt 0.625000 0.709409
vt 0.625000 0.732239
vt 0.625000 0.459409
vt 0.625000 0.482239
vt 0.625000 0.922699
vt 0.625000 0.172699
vt 0.625000 0.422699
vt 0.625000 0.672699
s 1
usemtl Material.002
f 82/86/79 85/87/82 86/88/83 88/89/85
f 83/90/80 87/91/84 86/92/83 85/93/82
f 84/94/81 88/95/85 86/96/83 87/97/84
f 89/98/86 92/99/89 91/100/88
f 92/99/89 90/100/87 91/100/88
f 93/101/90 96/102/93 97/103/94 99/104/96
f 94/105/91 98/106/95 97/107/94 96/108/93
f 95/109/92 99/110/96 97/107/94 98/106/95
f 100/111/97 103/112/99 102/113/88
f 103/112/99 101/113/98 102/113/88
f 104/114/100 107/115/103 108/116/104 110/117/106
f 105/118/101 109/119/105 108/116/104 107/115/103
f 106/120/102 110/117/106 108/116/104 109/119/105
f 111/121/107 114/122/109 113/123/88
f 114/122/109 112/123/108 113/123/88
f 115/124/110 118/125/113 119/126/114 121/127/116
f 116/128/111 120/129/115 119/126/114 118/125/113
f 117/130/112 121/127/116 119/126/114 120/129/115
f 122/131/117 125/132/119 124/133/88
f 125/132/119 123/133/118 124/133/88
f 126/134/120 129/135/123 130/136/124 132/137/126
f 127/138/121 131/134/125 130/136/124 129/135/123
f 128/139/122 132/140/126 130/141/124 131/142/125
f 133/143/127 136/144/130 137/113/131 139/145/133
f 134/146/128 138/147/132 137/113/131 136/144/130
f 135/113/129 139/145/133 137/113/131 138/147/132
f 140/148/134 143/149/137 144/133/138 146/150/140
f 141/151/135 145/152/139 144/133/138 143/149/137
f 142/133/136 146/150/140 144/133/138 145/152/139
f 147/153/141 150/154/144 151/123/145 153/155/147
f 148/156/142 152/157/146 151/123/145 150/154/144
f 149/123/143 153/155/147 151/123/145 152/157/146
f 154/158/148 158/159/152 159/160/153 162/113/156
f 155/138/149 160/161/154 159/162/153 158/134/152
f 156/153/150 161/163/155 159/164/153 160/123/154
f 157/148/151 162/165/156 159/166/153 161/133/155
f 93/101/90 82/86/79 88/89/85 96/102/93
f 96/108/93 88/95/85 84/94/81 94/105/91
f 83/90/80 90/167/87 92/134/89 87/91/84
f 87/97/84 92/100/89 89/98/86 84/94/81
f 100/111/97 95/109/92 98/106/95 103/113/99
f 103/113/99 98/106/95 94/105/91 101/168/98
f 115/124/110 93/101/90 99/104/96 118/125/113
f 118/125/113 99/110/96 95/109/92 116/128/111
f 122/131/117 117/130/112 120/129/115 125/133/119
f 125/133/119 120/129/115 116/128/111 123/169/118
f 104/114/100 115/124/110 121/127/116 107/115/103
f 107/115/103 121/127/116 117/130/112 105/118/101
f 111/121/107 106/120/102 109/119/105 114/123/109
f 114/123/109 109/119/105 105/118/101 112/170/108
f 82/86/79 104/114/100 110/117/106 85/87/82
f 85/93/82 110/117/106 106/120/102 83/90/80
f 128/139/122 133/143/127 139/145/133 132/140/126
f 132/140/126 139/145/133 135/113/129 126/100/120
f 134/146/128 140/148/134 146/150/140 138/147/132
f 138/147/132 146/150/140 142/133/136 135/113/129
f 141/151/135 147/153/141 153/155/147 145/152/139
f 145/152/139 153/155/147 149/123/143 142/133/136
f 148/156/142 127/138/121 129/135/123 152/157/146
f 152/157/146 129/135/123 126/134/120 149/123/143
f 127/138/121 155/138/149 158/134/152 131/134/125
f 131/142/125 158/159/152 154/158/148 128/139/122
f 140/148/134 157/148/151 161/133/155 143/149/137
f 143/149/137 161/163/155 156/153/150 141/151/135
f 155/138/149 148/156/142 150/154/144 160/161/154
f 160/123/154 150/154/144 147/153/141 156/153/150
f 157/148/151 134/146/128 136/144/130 162/165/156
f 162/113/156 136/144/130 133/143/127 154/158/148
f 93/101/90 115/124/110 104/114/100 82/86/79
f 84/94/81 89/98/86 101/168/98 94/105/91
f 106/120/102 111/121/107 90/167/87 83/90/80
f 91/134/88 90/167/87 111/121/107 113/123/88 149/123/143 126/134/120
f 102/113/88 101/168/98 89/98/86 91/100/88 126/100/120 135/113/129
f 95/109/92 100/111/97 123/169/118 116/128/111
f 124/133/88 123/169/118 100/111/97 102/113/88 135/113/129 142/133/136
f 117/130/112 122/131/117 112/170/108 105/118/101
f 113/123/88 112/170/108 122/131/117 124/133/88 142/133/136 149/123/143
f 127/138/121 148/156/142 155/138/149
f 133/143/127 128/139/122 154/158/148
f 140/148/134 134/146/128 157/148/151
f 147/153/141 141/151/135 156/153/150
o z
v -0.200234 -0.049766 0.282599
v -0.119583 -0.049766 0.363250
v -0.200234 -0.130417 0.363250
v -0.143205 -0.049766 0.306221
v -0.153670 -0.096330 0.316686
v -0.143205 -0.106795 0.363250
v -0.200234 -0.106795 0.306221
v -0.200234 -0.130417 3.094684
v -0.119583 -0.049766 3.094684
v -0.062555 -0.187445 3.094684
v -0.143205 -0.106795 3.094684
v -0.299766 -0.049766 0.282599
v -0.299766 -0.130417 0.363250
v -0.380417 -0.049766 0.363250
v -0.299766 -0.106795 0.306221
v -0.346330 -0.096330 0.316686
v -0.356795 -0.106795 0.363250
v -0.356795 -0.049766 0.306221
v -0.380417 -0.049766 3.094684
v -0.299766 -0.130417 3.094684
v -0.437445 -0.187445 3.094684
v -0.356795 -0.106795 3.094684
v -0.200234 0.049766 0.282599
v -0.200234 0.130417 0.363250
v -0.119583 0.049766 0.363250
v -0.200234 0.106795 0.306221
v -0.153670 0.096330 0.316686
v -0.143205 0.106795 0.363250
v -0.143205 0.049766 0.306221
v -0.119583 0.049766 3.094684
v -0.200234 0.130417 3.094684
v -0.062555 0.187445 3.094684
v -0.143205 0.106795 3.094684
v -0.299766 0.049766 0.282599
v -0.380417 0.049766 0.363250
v -0.299766 0.130417 0.363250
v -0.356795 0.049766 0.306221
v -0.346330 0.096330 0.316686
v -0.356795 0.106795 0.363250
v -0.299766 0.106795 0.306221
v -0.299766 0.130417 3.094684
v -0.380417 0.049766 3.094684
v -0.437445 0.187445 3.094684
v -0.356795 0.106795 3.094684
v 0.102955 -0.352955 3.094684
v 0.138535 -0.296144 3.161565
v 0.046145 -0.388535 3.161565
v 0.146783 -0.324550 3.114273
v 0.124159 -0.374159 3.125758
v 0.102367 -0.352367 3.175080
v 0.074550 -0.396783 3.114273
v -0.546144 -0.388534 3.161565
v -0.638534 -0.296144 3.161565
v -0.602955 -0.352955 3.094684
v -0.602367 -0.352367 3.175080
v -0.624159 -0.374159 3.125758
v -0.646783 -0.324550 3.114273
v -0.574550 -0.396783 3.114273
v -0.638534 0.296144 3.161565
v -0.546144 0.388535 3.161565
v -0.602955 0.352955 3.094684
v -0.602366 0.352367 3.175080
v -0.624159 0.374159 3.125758
v -0.574549 0.396783 3.114273
v -0.646782 0.324550 3.114273
v 0.046145 0.388534 3.161565
v 0.138535 0.296144 3.161565
v 0.102955 0.352955 3.094684
v 0.102367 0.352367 3.175080
v 0.124159 0.374159 3.125758
v 0.146783 0.324550 3.114273
v 0.074550 0.396783 3.114273
v -0.250000 -0.092390 3.601014
v -0.157610 -0.000000 3.601014
v -0.250000 0.092390 3.601014
v -0.342390 0.000000 3.601014
v -0.193778 -0.056222 3.614529
v -0.250000 0.000000 3.650880
v -0.193778 0.056222 3.614529
v -0.306222 0.056222 3.614529
v -0.306222 -0.056222 3.614529
vn 0.1794 -0.1794 -0.9673
vn 0.9673 -0.1794 -0.1794
vn 0.1794 -0.9673 -0.1794
vn 0.6965 -0.1726 -0.6965
vn 0.5774 -0.5774 -0.5774
vn 0.6965 -0.6965 -0.1726
vn 0.1726 -0.6965 -0.6965
vn 0.1282 -0.6445 -0.7538
vn 0.6445 -0.1282 -0.7538
vn -0.0000 -0.0000 -1.0000
vn 0.4203 -0.4203 -0.8042
vn -0.1794 -0.1794 -0.9673
vn -0.1794 -0.9673 -0.1794
vn -0.9673 -0.1794 -0.1794
vn -0.1726 -0.6965 -0.6965
vn -0.5774 -0.5774 -0.5774
vn -0.6965 -0.6965 -0.1726
vn -0.6965 -0.1726 -0.6965
vn -0.6445 -0.1282 -0.7538
vn -0.1282 -0.6445 -0.7538
vn -0.4203 -0.4203 -0.8042
vn 0.1794 0.1794 -0.9673
vn 0.1794 0.9673 -0.1794
vn 0.9673 0.1794 -0.1794
vn 0.1726 0.6965 -0.6965
vn 0.5774 0.5774 -0.5774
vn 0.6965 0.6965 -0.1726
vn 0.6965 0.1726 -0.6965
vn 0.6445 0.1282 -0.7538
vn 0.1282 0.6445 -0.7538
vn 0.4203 0.4203 -0.8042
vn -0.1794 0.1794 -0.9673
vn -0.9673 0.1794 -0.1794
vn -0.1794 0.9673 -0.1794
vn -0.6965 0.1726 -0.6965
vn -0.5774 0.5774 -0.5774
vn -0.6965 0.6965 -0.1726
vn -0.1726 0.6965 -0.6965
vn -0.1282 0.6445 -0.7538
vn -0.6445 0.1282 -0.7538
vn -0.4203 0.4203 -0.8042
vn 0.2882 -0.2882 -0.9131
vn 0.8821 -0.1606 0.4428
vn 0.1606 -0.8821 0.4428
vn 0.8992 -0.2484 -0.3602
vn 0.7061 -0.7061 -0.0543
vn 0.5724 -0.5724 0.5870
vn 0.2484 -0.8992 -0.3602
vn -0.1606 -0.8821 0.4428
vn -0.8821 -0.1606 0.4428
vn -0.2882 -0.2882 -0.9131
vn -0.5724 -0.5724 0.5870
vn -0.7061 -0.7061 -0.0543
vn -0.8992 -0.2484 -0.3602
vn -0.2484 -0.8992 -0.3602
vn -0.8821 0.1606 0.4428
vn -0.1606 0.8821 0.4428
vn -0.2882 0.2882 -0.9131
vn -0.5724 0.5724 0.5870
vn -0.7061 0.7061 -0.0543
vn -0.2484 0.8992 -0.3602
vn -0.8992 0.2484 -0.3602
vn 0.1606 0.8821 0.4428
vn 0.8821 0.1606 0.4428
vn 0.2882 0.2882 -0.9131
vn 0.5724 0.5724 0.5870
vn 0.7061 0.7061 -0.0543
vn 0.8992 0.2484 -0.3602
vn 0.2484 0.8992 -0.3602
vn -0.0000 -0.6716 0.7409
vn 0.6716 -0.0000 0.7409
vn -0.0000 0.6716 0.7409
vn -0.6716 -0.0000 0.7409
vn 0.3974 -0.3974 0.8271
vn -0.0000 -0.0000 1.0000
vn 0.3974 0.3974 0.8271
vn -0.3974 0.3974 0.8271
vn -0.3974 -0.3974 0.8271
vt 0.202301 0.672699
vt 0.202301 0.750000
vt 0.157671 0.750000
vt 0.125000 0.672699
vt 0.382170 0.922699
vt 0.382170 1.000000
vt 0.378030 1.000000
vt 0.375000 0.922699
vt 0.382170 0.077301
vt 0.375000 0.077301
vt 0.375000 0.032671
vt 0.382170 0.000000
vt 0.625000 0.077301
vt 0.625000 0.022641
vt 0.625000 0.000000
vt 0.202301 0.577301
vt 0.125000 0.577301
vt 0.125000 0.532671
vt 0.202301 0.500000
vt 0.382170 0.172699
vt 0.382170 0.250000
vt 0.376515 0.266336
vt 0.375000 0.172699
vt 0.382170 0.327301
vt 0.375000 0.327301
vt 0.625000 0.327301
vt 0.625000 0.272641
vt 0.625000 0.250000
vt 0.297699 0.672699
vt 0.375000 0.672699
vt 0.376010 0.750000
vt 0.336350 0.788650
vt 0.382170 0.672699
vt 0.382170 0.750000
vt 0.382170 0.827301
vt 0.625000 0.827301
vt 0.625000 0.772641
vt 0.625000 0.750000
vt 0.297699 0.577301
vt 0.336350 0.461350
vt 0.365120 0.510890
vt 0.375000 0.577301
vt 0.382170 0.422699
vt 0.382170 0.500000
vt 0.382170 0.577301
vt 0.625000 0.577301
vt 0.625000 0.522641
vt 0.625000 0.500000
vt 0.625000 1.000000
vt 0.625000 0.968561
vt 0.625000 0.991431
vt 0.625000 1.040368
vt 0.625000 0.973366
vt 0.625000 0.052621
vt 0.625000 0.031439
vt 0.625000 0.017137
vt 0.625000 0.038663
vt 0.625000 0.223366
vt 0.625000 0.269332
vt 0.625000 0.218561
vt 0.625000 0.302621
vt 0.625000 0.283671
vt 0.625000 0.473366
vt 0.625000 0.519332
vt 0.625000 0.468561
vt 0.625000 0.552621
vt 0.625000 0.533671
vt 0.625000 0.723366
vt 0.625000 0.769332
vt 0.625000 0.718561
vt 0.625000 0.802621
vt 0.625000 0.783671
vt 0.625000 0.223366
vt 0.625000 0.209409
vt 0.625000 0.232239
vt 0.625000 0.959409
vt 0.625000 0.982239
vt 0.625000 0.709409
vt 0.625000 0.732239
vt 0.625000 0.459409
vt 0.625000 0.482239
vt 0.625000 0.922699
vt 0.625000 0.172699
vt 0.625000 0.422699
vt 0.625000 0.672699
s 1
usemtl Material.003
f 163/171/157 166/172/160 167/173/161 169/174/163
f 164/175/158 168/176/162 167/177/161 166/178/160
f 165/179/159 169/180/163 167/181/161 168/182/162
f 170/183/164 173/184/167 172/185/166
f 173/184/167 171/185/165 172/185/166
f 174/186/168 177/187/171 178/188/172 180/189/174
f 175/190/169 179/191/173 178/192/172 177/193/171
f 176/194/170 180/195/174 178/192/172 179/191/173
f 181/196/175 184/197/177 183/198/166
f 184/197/177 182/198/176 183/198/166
f 185/199/178 188/200/181 189/201/182 191/202/184
f 186/203/179 190/204/183 189/201/182 188/200/181
f 187/205/180 191/202/184 189/201/182 190/204/183
f 192/206/185 195/207/187 194/208/166
f 195/207/187 193/208/186 194/208/166
f 196/209/188 199/210/191 200/211/192 202/212/194
f 197/213/189 201/214/193 200/211/192 199/210/191
f 198/215/190 202/212/194 200/211/192 201/214/193
f 203/216/195 206/217/197 205/218/166
f 206/217/197 204/218/196 205/218/166
f 207/219/198 210/220/201 211/221/202 213/222/204
f 208/223/199 212/219/203 211/221/202 210/220/201
f 209/224/200 213/225/204 211/226/202 212/227/203
f 214/228/205 217/229/208 218/198/209 220/230/211
f 215/231/206 219/232/210 218/198/209 217/229/208
f 216/198/207 220/230/211 218/198/209 219/232/210
f 221/233/212 224/234/215 225/218/216 227/235/218
f 222/236/213 226/237/217 225/218/216 224/234/215
f 223/218/214 227/235/218 225/218/216 226/237/217
f 228/238/219 231/239/222 232/208/223 234/240/225
f 229/241/220 233/242/224 232/208/223 231/239/222
f 230/208/221 234/240/225 232/208/223 233/242/224
f 235/243/226 239/244/230 240/245/231 243/198/234
f 236/223/227 241/246/232 240/247/231 239/219/230
f 237/238/228 242/248/233 240/249/231 241/208/232
f 238/233/229 243/250/234 240/251/231 242/218/233
f 174/186/168 163/171/157 169/174/163 177/187/171
f 177/193/171 169/180/163 165/179/159 175/190/169
f 164/175/158 171/252/165 173/219/167 168/176/162
f 168/182/162 173/185/167 170/183/164 165/179/159
f 181/196/175 176/194/170 179/191/173 184/198/177
f 184/198/177 179/191/173 175/190/169 182/253/176
f 196/209/188 174/186/168 180/189/174 199/210/191
f 199/210/191 180/195/174 176/194/170 197/213/189
f 203/216/195 198/215/190 201/214/193 206/218/197
f 206/218/197 201/214/193 197/213/189 204/254/196
f 185/199/178 196/209/188 202/212/194 188/200/181
f 188/200/181 202/212/194 198/215/190 186/203/179
f 192/206/185 187/205/180 190/204/183 195/208/187
f 195/208/187 190/204/183 186/203/179 193/255/186
f 163/171/157 185/199/178 191/202/184 166/172/160
f 166/178/160 191/202/184 187/205/180 164/175/158
f 209/224/200 214/228/205 220/230/211 213/225/204
f 213/225/204 220/230/211 216/198/207 207/185/198
f 215/231/206 221/233/212 227/235/218 219/232/210
f 219/232/210 227/235/218 223/218/214 216/198/207
f 222/236/213 228/238/219 234/240/225 226/237/217
f 226/237/217 234/240/225 230/208/221 223/218/214
f 229/241/220 208/223/199 210/220/201 233/242/224
f 233/242/224 210/220/201 207/219/198 230/208/221
f 208/223/199 236/223/227 239/219/230 212/219/203
f 212/227/203 239/244/230 235/243/226 209/224/200
f 221/233/212 238/233/229 242/218/233 224/234/215
f 224/234/215 242/248/233 237/238/228 222/236/213
f 236/223/227 229/241/220 231/239/222 241/246/232
f 241/208/232 231/239/222 228/238/219 237/238/228
f 238/233/229 215/231/206 217/229/208 243/250/234
f 243/198/234 217/229/208 214/228/205 235/243/226
f 174/186/168 196/209/188 185/199/178 163/171/157
f 165/179/159 170/183/164 182/253/176 175/190/169
f 187/205/180 192/206/185 171/252/165 164/175/158
f 172/219/166 171/252/165 192/206/185 194/208/166 230/208/221 207/219/198
f 183/198/166 182/253/176 170/183/164 172/185/166 207/185/198 216/198/207
f 176/194/170 181/196/175 204/254/196 197/213/189
f 205/218/166 204/254/196 181/196/175 183/198/166 216/198/207 223/218/214
f 198/215/190 203/216/195 193/255/186 186/203/179
f 194/208/166 193/255/186 203/216/195 205/218/166 223/218/214 230/208/221
f 208/223/199 229/241/220 236/223/227
f 214/228/205 209/224/200 235/243/226
f 221/233/212 215/231/206 238/233/229
f 228/238/219 222/236/213 237/238/228
o all
v -0.005563 -0.300000 0.244437
v 0.050000 -0.244437 0.244437
v -0.005563 -0.244437 0.300000
v 0.033726 -0.283726 0.244437
v 0.026516 -0.276516 0.276516
v 0.033726 -0.244437 0.283726
v -0.005563 -0.283726 0.283726
v 0.050000 0.244437 0.244437
v -0.005563 0.300000 0.244437
v -0.005563 0.244437 0.300000
v 0.033726 0.283726 0.244437
v 0.026516 0.276516 0.276516
v -0.005563 0.283726 0.283726
v 0.033726 0.244437 0.283726
v -0.494437 -0.300000 0.244437
v -0.494437 -0.244437 0.300000
v -0.550000 -0.244437 0.244437
v -0.494437 -0.283726 0.283726
v -0.526516 -0.276516 0.276516
v -0.533726 -0.244437 0.283726
v -0.533726 -0.283726 0.244437
v -0.494437 0.300000 0.244437
v -0.550000 0.244437 0.244437
v -0.494437 0.244437 0.300000
v -0.533726 0.283726 0.244437
v -0.526516 0.276516 0.276516
v -0.533726 0.244437 0.283726
v -0.494437 0.283726 0.283726
v -0.005563 -0.300000 -0.244437
v -0.005563 -0.244437 -0.300000
v 0.050000 -0.244437 -0.244437
v -0.005563 -0.283726 -0.283726
v 0.026516 -0.276516 -0.276516
v 0.033726 -0.244437 -0.283726
v 0.033726 -0.283726 -0.244437
v -0.005563 0.300000 -0.244437
v 0.050000 0.244437 -0.244437
v -0.005563 0.244437 -0.300000
v 0.033726 0.283726 -0.244437
v 0.026516 0.276516 -0.276516
v 0.033726 0.244437 -0.283726
v -0.005563 0.283726 -0.283726
v -0.494437 -0.300000 -0.244437
v -0.550000 -0.244437 -0.244437
v -0.494437 -0.244437 -0.300000
v -0.533726 -0.283726 -0.244437
v -0.526516 -0.276516 -0.276516
v -0.533726 -0.244437 -0.283726
v -0.494437 -0.283726 -0.283726
v -0.494437 0.300000 -0.244437
v -0.494437 0.244437 -0.300000
v -0.550000 0.244437 -0.244437
v -0.494437 0.283726 -0.283726
v -0.526516 0.276516 -0.276516
v -0.533726 0.244437 -0.283726
v -0.533726 0.283726 -0.244437
vn 0.3251 -0.8881 0.3251
vn 0.8881 -0.3251 0.3251
vn 0.3251 -0.3251 0.8881
vn 0.8881 0.3251 0.3251
vn 0.3251 0.8881 0.3251
vn 0.3251 0.3251 0.8881
vn -0.3251 -0.8881 0.3251
vn -0.3251 -0.3251 0.8881
vn -0.8881 -0.3251 0.3251
vn -0.3251 0.8881 0.3251
vn -0.8881 0.3251 0.3251
vn -0.3251 0.3251 0.8881
vn 0.3251 -0.8881 -0.3251
vn 0.3251 -0.3251 -0.8881
vn 0.8881 -0.3251 -0.3251
vn 0.3251 0.8881 -0.3251
vn 0.8881 0.3251 -0.3251
vn 0.3251 0.3251 -0.8881
vn -0.3251 -0.8881 -0.3251
vn -0.8881 -0.3251 -0.3251
vn -0.3251 -0.3251 -0.8881
vn -0.3251 0.8881 -0.3251
vn -0.3251 0.3251 -0.8881
vn -0.8881 0.3251 -0.3251
vn -0.0000 -0.9239 0.3827
vn -0.0000 -0.3827 0.9239
vn 0.9239 -0.0000 0.3827
vn 0.3827 -0.0000 0.9239
vn -0.0000 0.9239 0.3827
vn -0.0000 0.3827 0.9239
vn -0.9239 -0.0000 0.3827
vn -0.3827 -0.0000 0.9239
vn -0.3827 -0.9239 -0.0000
vn -0.9239 -0.3827 -0.0000
vn -0.3827 0.9239 -0.0000
vn -0.9239 0.3827 -0.0000
vn -0.3827 -0.0000 -0.9239
vn -0.9239 -0.0000 -0.3827
vn -0.0000 -0.9239 -0.3827
vn -0.0000 -0.3827 -0.9239
vn -0.0000 0.9239 -0.3827
vn -0.0000 0.3827 -0.9239
vn 0.9239 -0.0000 -0.3827
vn 0.3827 -0.0000 -0.9239
vn 0.3827 -0.9239 -0.0000
vn 0.9239 -0.3827 -0.0000
vn 0.3827 0.9239 -0.0000
vn 0.9239 0.3827 -0.0000
vn -0.0000 -1.0000 -0.0000
vn -0.0000 -0.0000 1.0000
vn 1.0000 -0.0000 -0.0000
vn -0.0000 1.0000 -0.0000
vn -1.0000 -0.0000 -0.0000
vn -0.0000 -0.0000 -1.0000
vt 0.148151 0.726849
vt 0.148151 0.750000
vt 0.134785 0.750000
vt 0.125000 0.726849
vt 0.398151 0.976849
vt 0.398151 1.000000
vt 0.384785 1.000000
vt 0.375000 0.976849
vt 0.398151 0.023151
vt 0.375000 0.023151
vt 0.375000 0.009785
vt 0.398151 0.000000
vt 0.601849 0.976849
vt 0.625000 0.976849
vt 0.625000 0.990215
vt 0.601849 1.000000
vt 0.851849 0.726849
vt 0.875000 0.726849
vt 0.875000 0.740215
vt 0.851849 0.750000
vt 0.601849 0.023151
vt 0.601849 0.000000
vt 0.615215 0.000000
vt 0.625000 0.023151
vt 0.148151 0.523151
vt 0.125000 0.523151
vt 0.125000 0.509785
vt 0.148151 0.500000
vt 0.398151 0.226849
vt 0.398151 0.250000
vt 0.379892 0.254892
vt 0.375000 0.226849
vt 0.398151 0.273151
vt 0.375000 0.273151
vt 0.851849 0.523151
vt 0.851849 0.500000
vt 0.865215 0.500000
vt 0.875000 0.523151
vt 0.601849 0.273151
vt 0.601849 0.250000
vt 0.620108 0.245108
vt 0.625000 0.273151
vt 0.601849 0.226849
vt 0.625000 0.226849
vt 0.351849 0.726849
vt 0.375000 0.726849
vt 0.378262 0.750000
vt 0.363424 0.761576
vt 0.398151 0.726849
vt 0.398151 0.750000
vt 0.398151 0.773151
vt 0.648151 0.726849
vt 0.636576 0.761576
vt 0.625000 0.746738
vt 0.625000 0.726849
vt 0.601849 0.773151
vt 0.601849 0.750000
vt 0.601849 0.726849
vt 0.351849 0.523151
vt 0.363424 0.488424
vt 0.375000 0.503262
vt 0.375000 0.523151
vt 0.398151 0.476849
vt 0.398151 0.500000
vt 0.398151 0.523151
vt 0.648151 0.523151
vt 0.625000 0.523151
vt 0.621738 0.500000
vt 0.636576 0.488424
vt 0.601849 0.523151
vt 0.601849 0.500000
vt 0.601849 0.476849
s 0
usemtl Material.004
f 244/256/235 247/257/235 248/258/235 250/259/235
f 245/260/236 249/261/236 248/262/236 247/263/236
f 246/264/237 250/265/237 248/266/237 249/267/237
f 251/268/238 254/269/238 255/270/238 257/271/238
f 252/272/239 256/273/239 255/274/239 254/275/239
f 253/276/240 257/277/240 255/278/240 256/279/240
f 258/280/241 261/281/241 262/282/241 264/283/241
f 259/284/242 263/285/242 262/286/242 261/287/242
f 260/288/243 264/289/243 262/286/243 263/285/243
f 265/290/244 268/291/244 269/292/244 271/293/244
f 266/294/245 270/295/245 269/296/245 268/297/245
f 267/298/246 271/299/246 269/296/246 270/295/246
f 272/300/247 275/301/247 276/302/247 278/303/247
f 273/304/248 277/305/248 276/302/248 275/301/248
f 274/306/249 278/303/249 276/302/249 277/305/249
f 279/307/250 282/308/250 283/309/250 285/310/250
f 280/311/251 284/312/251 283/309/251 282/308/251
f 281/313/252 285/310/252 283/309/252 284/312/252
f 286/314/253 289/315/253 290/316/253 292/317/253
f 287/318/254 291/319/254 290/316/254 289/315/254
f 288/320/255 292/317/255 290/316/255 291/319/255
f 293/321/256 296/322/256 297/323/256 299/324/256
f 294/325/257 298/326/257 297/323/257 296/322/257
f 295/327/258 299/324/258 297/323/258 298/326/258
f 258/280/259 244/256/259 250/259/259 261/281/259
f 261/287/260 250/265/260 246/264/260 259/284/260
f 245/260/261 251/268/261 257/271/261 249/261/261
f 249/267/262 257/277/262 253/276/262 246/264/262
f 252/272/263 265/290/263 271/293/263 256/273/263
f 256/279/264 271/299/264 267/298/264 253/276/264
f 266/294/265 260/288/265 263/285/265 270/295/265
f 270/295/266 263/285/266 259/284/266 267/298/266
f 286/314/267 258/280/267 264/283/267 289/315/267
f 289/315/268 264/289/268 260/288/268 287/318/268
f 265/290/269 293/321/269 299/324/269 268/291/269
f 268/297/270 299/324/270 295/327/270 266/294/270
f 294/325/271 288/320/271 291/319/271 298/326/271
f 298/326/272 291/319/272 287/318/272 295/327/272
f 272/300/273 286/314/273 292/317/273 275/301/273
f 275/301/274 292/317/274 288/320/274 273/304/274
f 293/321/275 279/307/275 285/310/275 296/322/275
f 296/322/276 285/310/276 281/313/276 294/325/276
f 280/311/277 274/306/277 277/305/277 284/312/277
f 284/312/278 277/305/278 273/304/278 281/313/278
f 244/256/279 272/300/279 278/303/279 247/257/279
f 247/263/280 278/303/280 274/306/280 245/260/280
f 279/307/281 252/272/281 254/275/281 282/308/281
f 282/308/282 254/269/282 251/268/282 280/311/282
f 258/280/283 286/314/283 272/300/283 244/256/283
f 246/264/284 253/276/284 267/298/284 259/284/284
f 274/306/285 280/311/285 251/268/285 245/260/285
f 293/321/286 265/290/286 252/272/286 279/307/286
f 260/288/287 266/294/287 295/327/287 287/318/287
f 288/320/288 294/325/288 281/313/288 273/304/288
